<svg xmlns="http://www.w3.org/2000/svg" width="17.88" height="17.037" viewBox="0 0 17.88 17.037"><defs><style>.a{fill:#2276b7;}</style></defs><g transform="translate(-4.872 -6.998)"><path class="a" d="M13.794,7a.594.594,0,0,0-.39.161l-8.32,7.924a.594.594,0,1,0,.767.908.605.605,0,0,0,.051-.048l.978-.929v5.467a.594.594,0,1,0,1.189.017V13.883L13.812,8.41l5.745,5.473v8.964H16.784V18.093a.594.594,0,0,0-.594-.594H11.435a.594.594,0,0,0-.594.594v4.755H8.067v-.39a.594.594,0,0,0-1.189-.017v1a.594.594,0,0,0,.594.594h3.962a.594.594,0,0,0,.594-.594V18.687H15.6v4.755a.594.594,0,0,0,.594.594h3.962a.594.594,0,0,0,.594-.594V15.016l.978.929a.594.594,0,1,0,.868-.813.6.6,0,0,0-.05-.048L14.221,7.16A.594.594,0,0,0,13.794,7Z"/></g></svg>