<svg xmlns="http://www.w3.org/2000/svg" width="17.01" height="17" viewBox="0 0 17.01 17"><defs><style>.a{fill:#2276b7;}</style></defs><g transform="translate(-3600.05 -6283)"><path class="a" d="M-230.031,361.481a1.038,1.038,0,0,0,0-.851l-.466-1.114a1.079,1.079,0,0,0-1.438-.587l-.749.3a6.935,6.935,0,0,0-1.539-1.539l.3-.749a1.112,1.112,0,0,0-.587-1.438l-1.114-.466a1.112,1.112,0,0,0-1.438.587l-.3.749a6.486,6.486,0,0,0-2.167,0l-.3-.749a1.111,1.111,0,0,0-.587-.587,1.038,1.038,0,0,0-.851,0l-1.114.466a1.111,1.111,0,0,0-.587.587,1.124,1.124,0,0,0,0,.85l.3.749a6.935,6.935,0,0,0-1.539,1.539l-.749-.3a1.112,1.112,0,0,0-1.438.587l-.466,1.114a1.038,1.038,0,0,0,0,.851,1.111,1.111,0,0,0,.587.587l.749.3a6.485,6.485,0,0,0,0,2.167l-.749.3a1.111,1.111,0,0,0-.587.587,1.038,1.038,0,0,0,0,.851l.466,1.114a1.079,1.079,0,0,0,1.438.587l.749-.3a6.935,6.935,0,0,0,1.539,1.539l-.3.749a1.038,1.038,0,0,0,0,.851,1.111,1.111,0,0,0,.587.587l1.114.466a1.112,1.112,0,0,0,1.438-.587l.3-.749a6.484,6.484,0,0,0,2.167,0l.3.749a1.111,1.111,0,0,0,.587.587,1.057,1.057,0,0,0,.425.081,1.057,1.057,0,0,0,.425-.081l1.114-.466a1.079,1.079,0,0,0,.587-1.438l-.3-.749a6.935,6.935,0,0,0,1.539-1.539l.749.3a1.112,1.112,0,0,0,1.438-.587l.466-1.114a1.038,1.038,0,0,0,0-.851,1.111,1.111,0,0,0-.587-.587l-.749-.3a6.485,6.485,0,0,0,0-2.167l.749-.3A1.047,1.047,0,0,0-230.031,361.481Zm-.689-.3a.4.4,0,0,1-.182.182l-1.033.425a.37.37,0,0,0-.223.425,6.443,6.443,0,0,1,0,2.491.37.37,0,0,0,.223.425l1.033.425a.4.4,0,0,1,.182.182.3.3,0,0,1,0,.263l-.466,1.114a.327.327,0,0,1-.446.182l-1.033-.425a.386.386,0,0,0-.466.142,6.086,6.086,0,0,1-1.762,1.762.4.4,0,0,0-.142.466l.425,1.033a.336.336,0,0,1-.182.446l-1.114.466a.3.3,0,0,1-.263,0,.4.4,0,0,1-.182-.182l-.425-1.033a.394.394,0,0,0-.344-.243h-.081a6.443,6.443,0,0,1-2.491,0,.37.37,0,0,0-.425.223l-.425,1.033a.327.327,0,0,1-.446.182l-1.114-.466a.4.4,0,0,1-.182-.182.3.3,0,0,1,0-.263l.425-1.033a.386.386,0,0,0-.142-.466,6.086,6.086,0,0,1-1.762-1.762.4.4,0,0,0-.466-.142l-1.033.425a.336.336,0,0,1-.446-.182l-.466-1.114a.3.3,0,0,1,0-.263.4.4,0,0,1,.182-.182l1.033-.425a.37.37,0,0,0,.223-.425,6.443,6.443,0,0,1,0-2.491.37.37,0,0,0-.223-.425l-1.033-.425a.4.4,0,0,1-.182-.182.3.3,0,0,1,0-.263l.466-1.114a.327.327,0,0,1,.446-.182l1.033.425a.386.386,0,0,0,.466-.142A6.085,6.085,0,0,1-242,358.119a.4.4,0,0,0,.142-.466l-.425-1.033a.3.3,0,0,1,0-.263.4.4,0,0,1,.182-.182l1.114-.466a.3.3,0,0,1,.263,0,.4.4,0,0,1,.182.182l.425,1.033a.37.37,0,0,0,.425.223,6.443,6.443,0,0,1,2.491,0,.37.37,0,0,0,.425-.223l.425-1.033a.327.327,0,0,1,.445-.182l1.114.466a.327.327,0,0,1,.182.445l-.425,1.033a.386.386,0,0,0,.142.466,6.085,6.085,0,0,1,1.762,1.762.4.4,0,0,0,.466.142l1.033-.425a.336.336,0,0,1,.446.182l.466,1.114A.662.662,0,0,1-230.719,361.177Z" transform="translate(3847 5928.05)"/><g transform="translate(3605.285 6287.33)"><path class="a" d="M13.534,10.3a2.08,2.08,0,1,0-2.368,0A3.274,3.274,0,0,0,9.08,13.346a.3.3,0,1,0,.594,0,2.676,2.676,0,0,1,5.352,0,.3.3,0,1,0,.594,0A3.271,3.271,0,0,0,13.534,10.3Zm-2.671-1.71a1.487,1.487,0,1,1,1.487,1.487A1.488,1.488,0,0,1,10.864,8.589Z" transform="translate(-9.08 -6.51)"/></g></g></svg>