<svg xmlns="http://www.w3.org/2000/svg" width="17.951" height="17.037" viewBox="0 0 17.951 17.037"><defs><style>.a{fill:#a6a4a8;}</style></defs><g transform="translate(-2.016 -3.137)"><path class="a" d="M11.647,3.137h-1.11a8.519,8.519,0,1,0,0,17.037h9.026a.408.408,0,0,0,.408-.408h0v-8.31A8.329,8.329,0,0,0,11.647,3.137Zm7.5,16.221H10.537a7.7,7.7,0,1,1,0-15.4h1.11a7.512,7.512,0,0,1,7.5,7.5Z"/><path class="a" d="M22.743,18.935H15.951a.408.408,0,0,0,0,.817h6.792a.408.408,0,0,0,0-.817Z" transform="translate(-8.004 -9.347)"/><path class="a" d="M27.155,26.833H23.408a.408.408,0,1,0,0,.817h3.747a.408.408,0,1,0,0-.817Z" transform="translate(-12.416 -14.021)"/></g></svg>