<svg xmlns="http://www.w3.org/2000/svg" width="24.094" height="17.037" viewBox="0 0 24.094 17.037"><defs><style>.a{fill:#2276b7;}</style></defs><g transform="translate(-26.928 -94.018)"><g transform="translate(26.928 94.018)"><g transform="translate(0 0)"><g transform="translate(8.395)"><path class="a" d="M190.314,101.534a3.758,3.758,0,1,1,.624-7.464.526.526,0,0,1-.174,1.037,2.706,2.706,0,1,0,2.255,2.669,2.692,2.692,0,0,0-.458-1.506.526.526,0,1,1,.873-.586,3.758,3.758,0,0,1-3.122,5.851Z" transform="translate(-186.556 -94.018)"/></g><g transform="translate(16.451 1.077)"><path class="a" d="M342.628,120.275a2.887,2.887,0,1,1,2.887-2.887A2.89,2.89,0,0,1,342.628,120.275Zm0-4.722a1.835,1.835,0,1,0,1.835,1.835A1.837,1.837,0,0,0,342.628,115.554Z" transform="translate(-339.741 -114.502)"/></g><g transform="translate(0 5.799)"><path class="a" d="M33.155,212.289h-.266a.526.526,0,0,1-.259-.984,6.415,6.415,0,0,1,2.053-4.626,3.8,3.8,0,0,0-6.7,2.458v.874a1.254,1.254,0,0,0,.988,1.226H30.26a.526.526,0,0,1,0,1.052H28.916a.527.527,0,0,1-.094-.008,2.306,2.306,0,0,1-1.894-2.27v-.874a4.854,4.854,0,0,1,8.909-2.668.526.526,0,0,1-.112.7,5.375,5.375,0,0,0-2.044,4.23v.364A.526.526,0,0,1,33.155,212.289Z" transform="translate(-26.928 -204.282)"/></g><g transform="translate(15.235 5.799)"><path class="a" d="M323.591,212.289h-4.125a.526.526,0,0,1-.526-.526V211.4a5.393,5.393,0,0,0-1.909-4.12c-.06-.051-.126-.1-.2-.163a.526.526,0,0,1-.114-.713,4.855,4.855,0,0,1,8.755,1.7.526.526,0,0,1-1.028.222,3.8,3.8,0,0,0-6.567-1.707,6.441,6.441,0,0,1,2.115,4.616h3.549a1.263,1.263,0,0,0,.855-.663.526.526,0,1,1,.94.472,2.319,2.319,0,0,1-1.649,1.235A.528.528,0,0,1,323.591,212.289Z" transform="translate(-316.623 -204.282)"/></g><g transform="translate(5.701 6.464)"><path class="a" d="M145.716,227.5h-7.5a.526.526,0,0,1,0-1.052h7.454a1.912,1.912,0,0,0,1.527-1.873v-1.2a5.36,5.36,0,0,0-1.009-3.143.526.526,0,1,1,.855-.613,6.406,6.406,0,0,1,1.206,3.757v1.2a2.963,2.963,0,0,1-2.434,2.917A.527.527,0,0,1,145.716,227.5Zm-9.6-1.331a.526.526,0,0,1-.473-.3,2.938,2.938,0,0,1-.3-1.3v-1.2a6.451,6.451,0,0,1,10.38-5.116c.09.069.169.133.242.194a.526.526,0,0,1-.681.8c-.06-.051-.126-.1-.2-.163a5.4,5.4,0,0,0-8.687,4.282v1.2a1.9,1.9,0,0,0,.193.837.526.526,0,0,1-.472.757Z" transform="translate(-135.341 -216.931)"/></g><g transform="translate(1.967 1.077)"><path class="a" d="M67.224,120.275a2.887,2.887,0,1,1,2.887-2.887A2.89,2.89,0,0,1,67.224,120.275Zm0-4.722a1.835,1.835,0,1,0,1.835,1.835A1.837,1.837,0,0,0,67.224,115.554Z" transform="translate(-64.337 -114.502)"/></g></g></g></g></svg>