<svg xmlns="http://www.w3.org/2000/svg" width="17.077" height="17" viewBox="0 0 17.077 17"><defs><style>.a{fill:#2276b7;}</style></defs><g transform="translate(0 -0.24)"><path class="a" d="M1.214,10.572l.794.364a.7.7,0,0,1,.364.876l-.311.818A1.957,1.957,0,0,0,2.3,14.475a2,2,0,0,0,1.655.871,1.966,1.966,0,0,0,.717-.133l.818-.311a.586.586,0,0,1,.244-.043.683.683,0,0,1,.63.406l.364.794a2.012,2.012,0,0,0,3.663,0l.372-.8a.692.692,0,0,1,.63-.406.625.625,0,0,1,.244.043l.818.321a2.065,2.065,0,0,0,.717.143h0a2.061,2.061,0,0,0,1.655-.885,2.017,2.017,0,0,0,.234-1.855l-.319-.818a.7.7,0,0,1,.364-.871l.794-.364a2.012,2.012,0,0,0,0-3.663L15.1,6.542a.7.7,0,0,1-.364-.878l.311-.818A1.957,1.957,0,0,0,14.816,3a2,2,0,0,0-1.655-.871,1.966,1.966,0,0,0-.717.133l-.818.311a.586.586,0,0,1-.244.043.683.683,0,0,1-.622-.4l-.372-.794A2,2,0,0,0,8.556.24a2.05,2.05,0,0,0-1.865,1.2l-.372.791a.692.692,0,0,1-.63.406.628.628,0,0,1-.236-.043l-.818-.311A2.016,2.016,0,0,0,2.029,4.861l.311.818a.7.7,0,0,1-.364.871l-.794.364A2,2,0,0,0,0,8.738,2.019,2.019,0,0,0,1.214,10.572ZM1.756,8.11l.794-.364A2.014,2.014,0,0,0,3.6,5.206l-.311-.818a.665.665,0,0,1,.077-.63.673.673,0,0,1,.818-.253L5,3.816a2,2,0,0,0,.707.133h0A2.025,2.025,0,0,0,7.538,2.761L7.9,1.967a.7.7,0,0,1,1.267.005l.357.789a2.025,2.025,0,0,0,1.833,1.2,1.93,1.93,0,0,0,.707-.133l.818-.311a.709.709,0,0,1,.818.253.663.663,0,0,1,.077.63l-.311.818a2.026,2.026,0,0,0,1.049,2.533l.794.364a.692.692,0,0,1-.005,1.259l-.789.365a2.014,2.014,0,0,0-1.049,2.54l.311.818a.665.665,0,0,1-.077.63.673.673,0,0,1-.818.253l-.818-.311a2,2,0,0,0-.707-.133,2.026,2.026,0,0,0-1.833,1.185l-.364.794A.688.688,0,0,1,7.909,15.5l-.371-.789a2.026,2.026,0,0,0-1.833-1.182A1.93,1.93,0,0,0,5,13.667l-.818.311a.709.709,0,0,1-.818-.253.663.663,0,0,1-.077-.63l.311-.818a2.026,2.026,0,0,0-1.049-2.54L1.756,9.37a.691.691,0,0,1,0-1.26Z" transform="translate(0 0)"/><path class="a" d="M35.973,38.932A2.871,2.871,0,1,0,33.1,36.061,2.871,2.871,0,0,0,35.973,38.932Zm0-4.415a1.534,1.534,0,1,0,0,.007Z" transform="translate(-27.447 -27.323)"/></g></svg>